<svg id="svg" fill="#000000" stroke="#000000" width="24" height="24" version="1.1" viewBox="144 144 512 512" xmlns="http://www.w3.org/2000/svg">
    <g id="IconSvg_bgCarrier" stroke-width="0"></g>
    <g id="IconSvg_tracerCarrier" stroke-linecap="round" stroke-linejoin="round" stroke="#CCCCCC" stroke-width="0">
      <path xmlns="http://www.w3.org/2000/svg" d="m610.79 400c0-56.305-21.926-109.24-61.738-149.05-39.797-39.797-92.711-61.723-148.99-61.738h-0.054688-0.054687c-56.281 0.015624-109.19 21.941-148.99 61.738-39.82 39.809-61.746 92.746-61.746 149.05s21.926 109.24 61.738 149.05c39.809 39.809 92.746 61.734 149.05 61.734s109.23-21.926 149.05-61.738c39.809-39.809 61.734-92.746 61.734-149.05zm-210.79 184.44c-20 0-41.332-25.992-55.578-69.355 17.742-1.5156 36.418-2.3086 55.578-2.3086s37.836 0.79297 55.578 2.3086c-14.246 43.363-35.582 69.355-55.578 69.355zm0-98.016c-21.617 0-42.723 0.98047-62.703 2.8633-5.1289-22.402-8.4883-48.035-9.293-76.109h144c-0.80859 28.074-4.1641 53.707-9.293 76.109-19.996-1.8789-41.098-2.8633-62.715-2.8633zm-0.039062-270.86h0.035156 0.035156c19.988 0.03125 41.309 26.02 55.543 69.355-17.734 1.5234-36.414 2.3125-55.574 2.3125s-37.836-0.79297-55.578-2.3086c14.234-43.344 35.555-69.324 55.539-69.359zm0.039062 98.016c21.617 0 42.723-0.98047 62.707-2.8633 5.1289 22.402 8.4883 48.035 9.293 76.109l-144 0.003907c0.80859-28.074 4.1641-53.707 9.293-76.109 19.984 1.8789 41.09 2.8594 62.707 2.8594zm98.355 73.254c-0.76953-27.824-3.9805-54.652-9.3984-79.184 23.145-3.2734 44.164-7.8438 61.957-13.547 18.734 26.621 30.609 58.391 33.047 92.73zm-196.71 0h-85.605c2.4375-34.34 14.312-66.113 33.047-92.73 17.793 5.7031 38.812 10.273 61.957 13.547-5.4141 24.523-8.6211 51.355-9.3984 79.184zm0 26.348c0.76953 27.824 3.9805 54.652 9.3984 79.184-23.145 3.2734-44.172 7.8438-61.965 13.547-18.727-26.621-30.605-58.391-33.039-92.73zm196.71 0h85.605c-2.4297 34.34-14.312 66.109-33.047 92.727-17.793-5.7031-38.812-10.273-61.957-13.547 5.4141-24.527 8.625-51.359 9.3984-79.18zm34.344-141.13c-14.934 4.1172-31.977 7.4609-50.473 9.957-2.9102-9.4648-6.1914-18.445-9.8203-26.852-5.1367-11.891-10.848-22.281-17.031-31.094 29.715 9.3789 56.195 26.082 77.324 47.988zm-188.08-47.98c-6.1797 8.8047-11.895 19.203-17.031 31.094-3.6289 8.4062-6.9102 17.387-9.8203 26.852-18.496-2.5-35.539-5.8438-50.473-9.957 21.133-21.914 47.613-38.617 77.324-47.988zm-77.32 303.89c14.934-4.1172 31.977-7.4609 50.473-9.957 2.9102 9.4648 6.1836 18.445 9.8203 26.852 5.1367 11.891 10.848 22.285 17.031 31.094-29.715-9.375-56.195-26.086-77.324-47.988zm188.09 47.984c6.1797-8.8047 11.895-19.203 17.031-31.094 3.6289-8.4062 6.9023-17.387 9.8203-26.852 18.496 2.5 35.535 5.8398 50.473 9.957-21.137 21.906-47.617 38.609-77.324 47.988z"></path>

      </g>
     <g id="IconSvg_iconCarrier">
      <path xmlns="http://www.w3.org/2000/svg" d="m610.79 400c0-56.305-21.926-109.24-61.738-149.05-39.797-39.797-92.711-61.723-148.99-61.738h-0.054688-0.054687c-56.281 0.015624-109.19 21.941-148.99 61.738-39.82 39.809-61.746 92.746-61.746 149.05s21.926 109.24 61.738 149.05c39.809 39.809 92.746 61.734 149.05 61.734s109.23-21.926 149.05-61.738c39.809-39.809 61.734-92.746 61.734-149.05zm-210.79 184.44c-20 0-41.332-25.992-55.578-69.355 17.742-1.5156 36.418-2.3086 55.578-2.3086s37.836 0.79297 55.578 2.3086c-14.246 43.363-35.582 69.355-55.578 69.355zm0-98.016c-21.617 0-42.723 0.98047-62.703 2.8633-5.1289-22.402-8.4883-48.035-9.293-76.109h144c-0.80859 28.074-4.1641 53.707-9.293 76.109-19.996-1.8789-41.098-2.8633-62.715-2.8633zm-0.039062-270.86h0.035156 0.035156c19.988 0.03125 41.309 26.02 55.543 69.355-17.734 1.5234-36.414 2.3125-55.574 2.3125s-37.836-0.79297-55.578-2.3086c14.234-43.344 35.555-69.324 55.539-69.359zm0.039062 98.016c21.617 0 42.723-0.98047 62.707-2.8633 5.1289 22.402 8.4883 48.035 9.293 76.109l-144 0.003907c0.80859-28.074 4.1641-53.707 9.293-76.109 19.984 1.8789 41.09 2.8594 62.707 2.8594zm98.355 73.254c-0.76953-27.824-3.9805-54.652-9.3984-79.184 23.145-3.2734 44.164-7.8438 61.957-13.547 18.734 26.621 30.609 58.391 33.047 92.73zm-196.71 0h-85.605c2.4375-34.34 14.312-66.113 33.047-92.73 17.793 5.7031 38.812 10.273 61.957 13.547-5.4141 24.523-8.6211 51.355-9.3984 79.184zm0 26.348c0.76953 27.824 3.9805 54.652 9.3984 79.184-23.145 3.2734-44.172 7.8438-61.965 13.547-18.727-26.621-30.605-58.391-33.039-92.73zm196.71 0h85.605c-2.4297 34.34-14.312 66.109-33.047 92.727-17.793-5.7031-38.812-10.273-61.957-13.547 5.4141-24.527 8.625-51.359 9.3984-79.18zm34.344-141.13c-14.934 4.1172-31.977 7.4609-50.473 9.957-2.9102-9.4648-6.1914-18.445-9.8203-26.852-5.1367-11.891-10.848-22.281-17.031-31.094 29.715 9.3789 56.195 26.082 77.324 47.988zm-188.08-47.98c-6.1797 8.8047-11.895 19.203-17.031 31.094-3.6289 8.4062-6.9102 17.387-9.8203 26.852-18.496-2.5-35.539-5.8438-50.473-9.957 21.133-21.914 47.613-38.617 77.324-47.988zm-77.32 303.89c14.934-4.1172 31.977-7.4609 50.473-9.957 2.9102 9.4648 6.1836 18.445 9.8203 26.852 5.1367 11.891 10.848 22.285 17.031 31.094-29.715-9.375-56.195-26.086-77.324-47.988zm188.09 47.984c6.1797-8.8047 11.895-19.203 17.031-31.094 3.6289-8.4062 6.9023-17.387 9.8203-26.852 18.496 2.5 35.535 5.8398 50.473 9.957-21.137 21.906-47.617 38.609-77.324 47.988z"></path>

      </g>
      </svg>