<svg id="svg" fill="#000000" stroke="#000000" width="24" height="24" version="1.1" viewBox="144 144 512 512" xmlns="http://www.w3.org/2000/svg">
    <g id="IconSvg_bgCarrier" stroke-width="0"></g>
    <g id="IconSvg_tracerCarrier" stroke-linecap="round" stroke-linejoin="round" stroke="#CCCCCC" stroke-width="0">
      <g xmlns="http://www.w3.org/2000/svg">
  <path d="m400 175.8c-59.461 0-116.49 23.617-158.53 65.664-42.047 42.043-65.664 99.07-65.664 158.53 0 59.457 23.617 116.48 65.664 158.53 42.043 42.047 99.07 65.668 158.53 65.668 59.457 0 116.48-23.621 158.53-65.668 42.047-42.043 65.668-99.07 65.668-158.53-0.066406-59.441-23.711-116.43-65.742-158.46-42.027-42.031-99.016-65.672-158.45-65.738zm0 428.24c-54.117 0-106.02-21.5-144.28-59.766s-59.762-90.164-59.762-144.28c0-54.117 21.496-106.02 59.762-144.28s90.164-59.762 144.28-59.762c54.113 0 106.01 21.496 144.28 59.762s59.766 90.164 59.766 144.28c-0.066407 54.094-21.586 105.95-59.84 144.2-38.25 38.254-90.109 59.773-144.2 59.84z"></path>
  <path d="m402.92 263.16c-20.535-0.79297-40.512 6.8086-55.32 21.055-14.809 14.25-23.176 33.914-23.176 54.465 0 5.5664 4.5117 10.078 10.078 10.078 5.5625 0 10.074-4.5117 10.074-10.078-0.011719-15.078 6.125-29.516 16.992-39.973 10.867-10.457 25.523-16.035 40.594-15.445 13.887 0.72656 27.016 6.5742 36.848 16.406s15.68 22.961 16.406 36.848c0.73047 18.422-7.7461 36.004-22.621 46.902-27.129 20.582-42.543 53.078-41.312 87.109v8.668c0 2.6719 1.0625 5.2344 2.9492 7.125 1.8906 1.8867 4.4531 2.9492 7.125 2.9492 2.6758 0 5.2383-1.0625 7.125-2.9492 1.8906-1.8906 2.9531-4.4531 2.9531-7.125v-8.668c-1.125-27.488 11.207-53.805 33.051-70.531 16.98-12.438 28.004-31.395 30.414-52.305 2.4141-20.91-4.0039-41.879-17.703-57.855-13.703-15.977-33.445-25.52-54.477-26.324z"></path>
  <path d="m412.59 514.21c0 6.957-5.6406 12.598-12.594 12.598-6.957 0-12.598-5.6406-12.598-12.598 0-6.9531 5.6406-12.594 12.598-12.594 6.9531 0 12.594 5.6406 12.594 12.594"></path>
 </g>

      </g>
     <g id="IconSvg_iconCarrier">
      <g xmlns="http://www.w3.org/2000/svg">
  <path d="m400 175.8c-59.461 0-116.49 23.617-158.53 65.664-42.047 42.043-65.664 99.07-65.664 158.53 0 59.457 23.617 116.48 65.664 158.53 42.043 42.047 99.07 65.668 158.53 65.668 59.457 0 116.48-23.621 158.53-65.668 42.047-42.043 65.668-99.07 65.668-158.53-0.066406-59.441-23.711-116.43-65.742-158.46-42.027-42.031-99.016-65.672-158.45-65.738zm0 428.24c-54.117 0-106.02-21.5-144.28-59.766s-59.762-90.164-59.762-144.28c0-54.117 21.496-106.02 59.762-144.28s90.164-59.762 144.28-59.762c54.113 0 106.01 21.496 144.28 59.762s59.766 90.164 59.766 144.28c-0.066407 54.094-21.586 105.95-59.84 144.2-38.25 38.254-90.109 59.773-144.2 59.84z"></path>
  <path d="m402.92 263.16c-20.535-0.79297-40.512 6.8086-55.32 21.055-14.809 14.25-23.176 33.914-23.176 54.465 0 5.5664 4.5117 10.078 10.078 10.078 5.5625 0 10.074-4.5117 10.074-10.078-0.011719-15.078 6.125-29.516 16.992-39.973 10.867-10.457 25.523-16.035 40.594-15.445 13.887 0.72656 27.016 6.5742 36.848 16.406s15.68 22.961 16.406 36.848c0.73047 18.422-7.7461 36.004-22.621 46.902-27.129 20.582-42.543 53.078-41.312 87.109v8.668c0 2.6719 1.0625 5.2344 2.9492 7.125 1.8906 1.8867 4.4531 2.9492 7.125 2.9492 2.6758 0 5.2383-1.0625 7.125-2.9492 1.8906-1.8906 2.9531-4.4531 2.9531-7.125v-8.668c-1.125-27.488 11.207-53.805 33.051-70.531 16.98-12.438 28.004-31.395 30.414-52.305 2.4141-20.91-4.0039-41.879-17.703-57.855-13.703-15.977-33.445-25.52-54.477-26.324z"></path>
  <path d="m412.59 514.21c0 6.957-5.6406 12.598-12.594 12.598-6.957 0-12.598-5.6406-12.598-12.598 0-6.9531 5.6406-12.594 12.598-12.594 6.9531 0 12.594 5.6406 12.594 12.594"></path>
 </g>

      </g>
      </svg>