<svg id="svg" fill="#000000" stroke="#000000" width="24" height="24" version="1.1" viewBox="144 144 512 512" xmlns="http://www.w3.org/2000/svg">
    <g id="IconSvg_bgCarrier" stroke-width="0"></g>
    <g id="IconSvg_tracerCarrier" stroke-linecap="round" stroke-linejoin="round" stroke="#CCCCCC" stroke-width="0">
      <path xmlns="http://www.w3.org/2000/svg" d="m400 163.84c130.43 0 236.16 105.73 236.16 236.16 0 130.43-105.73 236.16-236.16 236.16-130.43 0-236.16-105.73-236.16-236.16 0-130.43 105.73-236.16 236.16-236.16zm35.199 362.11h-70.402c-24.781 0-48.953 6.1641-67.566 16.297-12.621 6.8711-20.75 14.672-23.184 20.047 34.156 26.461 78.059 42.379 125.95 42.379 47.891 0 91.797-15.918 125.95-42.379-2.4336-5.375-10.562-13.176-23.184-20.047-18.613-10.133-42.785-16.297-67.566-16.297zm-33.625-330.62c-108.69 0-206.25 90.914-206.25 205.63 0 53.289 28.461 103.97 59.715 140.74 18.195-27.574 64.41-47.117 111.39-47.117h70.285c46.984 0 93.195 19.543 111.39 47.117 31.254-36.77 56.566-88.332 56.566-141.62 0-114.71-94.41-204.75-203.1-204.75zm-1.5742 47.234c54.031 0 94.461 41.812 94.461 100.76 0 61.797-42.359 119.66-94.461 119.66s-94.465-57.859-94.465-119.66c0-58.949 40.43-100.76 94.465-100.76zm0 31.488c-36.402 0-62.977 27.484-62.977 69.273 0 46.148 30.762 88.168 62.977 88.168 32.211 0 62.977-42.02 62.977-88.168 0-41.789-26.574-69.273-62.977-69.273z"></path>

      </g>
     <g id="IconSvg_iconCarrier">
      <path xmlns="http://www.w3.org/2000/svg" d="m400 163.84c130.43 0 236.16 105.73 236.16 236.16 0 130.43-105.73 236.16-236.16 236.16-130.43 0-236.16-105.73-236.16-236.16 0-130.43 105.73-236.16 236.16-236.16zm35.199 362.11h-70.402c-24.781 0-48.953 6.1641-67.566 16.297-12.621 6.8711-20.75 14.672-23.184 20.047 34.156 26.461 78.059 42.379 125.95 42.379 47.891 0 91.797-15.918 125.95-42.379-2.4336-5.375-10.562-13.176-23.184-20.047-18.613-10.133-42.785-16.297-67.566-16.297zm-33.625-330.62c-108.69 0-206.25 90.914-206.25 205.63 0 53.289 28.461 103.97 59.715 140.74 18.195-27.574 64.41-47.117 111.39-47.117h70.285c46.984 0 93.195 19.543 111.39 47.117 31.254-36.77 56.566-88.332 56.566-141.62 0-114.71-94.41-204.75-203.1-204.75zm-1.5742 47.234c54.031 0 94.461 41.812 94.461 100.76 0 61.797-42.359 119.66-94.461 119.66s-94.465-57.859-94.465-119.66c0-58.949 40.43-100.76 94.465-100.76zm0 31.488c-36.402 0-62.977 27.484-62.977 69.273 0 46.148 30.762 88.168 62.977 88.168 32.211 0 62.977-42.02 62.977-88.168 0-41.789-26.574-69.273-62.977-69.273z"></path>

      </g>
      </svg>